<svg xmlns="http://www.w3.org/2000/svg" width="26.685" height="23.821" viewBox="0 0 26.685 23.821">
  <g id="backspace" transform="translate(0 -1)">
    <path id="Path_3" data-name="Path 3" d="M5.934,5.249a.851.851,0,0,0,0,1.2L9.584,10.1,5.931,13.756a.851.851,0,1,0,1.2,1.2l3.653-3.653,3.651,3.653a.851.851,0,0,0,1.2-1.2L11.992,10.1l3.651-3.651a.851.851,0,1,0-1.2-1.2L10.789,8.9,7.136,5.249a.851.851,0,0,0-1.2,0Z" transform="translate(3.985 2.806)" fill="#7488a7"/>
    <path id="Path_4" data-name="Path 4" d="M23.282,1a3.4,3.4,0,0,1,3.4,3.4V21.418a3.4,3.4,0,0,1-3.4,3.4H11.235a3.4,3.4,0,0,1-2.585-1.188L.41,14.017a1.7,1.7,0,0,1,0-2.215l8.241-9.61A3.4,3.4,0,0,1,11.235,1H23.282ZM11.235,2.7a1.7,1.7,0,0,0-1.293.6L1.7,12.911l8.242,9.614a1.7,1.7,0,0,0,1.291.6H23.282a1.7,1.7,0,0,0,1.7-1.7V4.4a1.7,1.7,0,0,0-1.7-1.7Z" fill="#7488a7"/>
  </g>
</svg>
