<svg xmlns="http://www.w3.org/2000/svg" viewBox="0 0 71.14 71.14"><defs><style>.cls-1{fill:#849aa5;}.cls-2{fill:#6c8794;}.cls-3{fill:#4e626b;}.cls-4{fill:#26eab9;}.cls-5,.cls-6{fill:none;stroke:#f3f3f3;}.cls-5{stroke-width:3px;}.cls-6{stroke-width:4px;}</style></defs><g id="Layer_2" data-name="Layer 2"><g id="Layer_1-2" data-name="Layer 1"><path class="cls-1" d="M32.67,0V32.67H0V6.35A6.35,6.35,0,0,1,6.35,0Z"/><path class="cls-2" d="M32.67,32.67V65.34H6.35A6.36,6.36,0,0,1,0,59V32.67Z"/><path class="cls-3" d="M65.34,6.35V59A6.36,6.36,0,0,1,59,65.34H32.67V0H59A6.35,6.35,0,0,1,65.34,6.35Z"/><circle class="cls-4" cx="49" cy="49" r="22.14"/><line class="cls-5" x1="9.13" y1="16.33" x2="23.54" y2="16.33"/><line class="cls-6" x1="40.82" y1="45.69" x2="57.19" y2="45.69"/><line class="cls-6" x1="40.82" y1="52.31" x2="57.19" y2="52.31"/><line class="cls-5" x1="43.92" y1="11.25" x2="54.08" y2="21.41"/><line class="cls-5" x1="43.92" y1="21.41" x2="54.08" y2="11.25"/><line class="cls-5" x1="16.33" y1="41.81" x2="16.33" y2="56.19"/><line class="cls-5" x1="9.15" y1="49" x2="23.52" y2="49"/></g></g></svg>